{"title":"NetVideoGirls.Savanah.XXX.MP4.mp4","uid":10612480,"size":659969221,"categoryP":"porn","categoryS":"movies","magnet":"?xt=urn:btih:3e7a2dff66355bb6e5c2c874b1d8a3f2b44ab6f7&amp;dn=NetVideoGirls.Savanah.XXX.MP4.mp4&amp;tr=udp%3A%2F%2Ftracker.openbittorrent.com%3A80&amp;tr=udp%3A%2F%2Fopen.demonii.com%3A1337&amp;tr=udp%3A%2F%2Ftracker.coppersurfer.tk%3A6969&amp;tr=udp%3A%2F%2Fexodus.desync.com%3A6969","seeders":0,"leechers":2,"uploader":"XXXmegathor","files":1,"time":1406056944,"description":"NetVideoGirls.Savanah.XXX.MP4\n\nSCREENIES &lt;a href=&quot;\nhttp://xxxtrapics.com/image/MZ&quot; rel=&quot;nofollow&quot; target=&quot;_NEW&quot;&gt;\nhttp://xxxtrapics.com/image/MZ&lt;/a&gt;\n\n\nDuration : 32mn 58s\nBit rate mode : Variable\nBit rate : 2 500 Kbps\nWidth : 656 pixels\nHeight : 368 pixels\nDisplay aspect ratio : 16:9\nFrame rate mode : Variable\nFrame rate : 29.970 fps\nMinimum frame rate : 29.960 fps\nMaximum frame rate : 29.970 fps\nColor space : YUV\nChroma subsampling : 4:2:0\nBit depth : 8 bits\nScan type : Progressive\nBits/(Pixel*Frame) : 0.346\nStream size : 589 MiB (94%)\nWriting library : x264 core 130 r2273 b3065e6\nEncoding settings : cabac=1 / ref=1 / deblock=1:0:0 / analyse=0x1:0x111 / me=hex / subme=2 / psy=1 / psy_rd=1.00:0.00 / mixed_ref=0 / me_range=16 / chroma_me=1 / trellis=0 / 8x8dct=0 / cqm=0 / deadzone=21,11 / fast_pskip=1 / chroma_qp_offset=0 / threads=36 / lookahead_threads=2 / sliced_threads=0 / nr=0 / decimate=1 / interlaced=0 / bluray_compat=0 / constrained_intra=0 / bframes=3 / b_pyramid=2 / b_adapt=1 / b_bias=0 / direct=1 / weightb=1 / open_gop=0 / weightp=1 / keyint=300 / keyint_min=30 / scenecut=40 / intra_refresh=0 / rc_lookahead=10 / rc=abr / mbtree=1 / bitrate=2500 / ratetol=1.0 / qcomp=0.60 / qpmin=0 / qpmax=69 / qpstep=4 / vbv_maxrate=20000 / vbv_bufsize=25000 / nal_hrd=none / ip_ratio=1.40 / aq=1:1.00\nEncoded date : UTC 2014-07-08 19:45:43\nTagged date : UTC 2014-07-08 20:01:40\nColor primaries : BT.709-5, BT.1361, IEC 61966-2-4, SMPTE RP177\nTransfer characteristics : BT.709-5, BT.1361\nMatrix coefficients : BT.709-5, BT.1361, IEC 61966-2-4 709, SMPTE RP177\n\nAudio\nID : 2\nFormat : AAC\nFormat/Info : Advanced Audio Codec\nFormat profile : LC\nCodec ID : 40\nDuration : 32mn 58s\nBit rate mode : Variable\nBit rate : 164 Kbps\nMaximum bit rate : 257 Kbps\nChannel(s) : 2 channels\nChannel positions : Front: L R\nSampling rate : 48.0 KHz\nCompression mode : Lossy\nStream size : 38.8 MiB (6%)\nLanguage : English\nEncoded date : UTC 2014-07-08 19:45:43\nTagged date : UTC 2014-07-08 20:01:40\n\n\n\n","torrent":{"xt":"urn:btih:3e7a2dff66355bb6e5c2c874b1d8a3f2b44ab6f7","amp;dn":"NetVideoGirls.Savanah.XXX.MP4.mp4","amp;tr":["udp%3A%2F%2Ftracker.openbittorrent.com%3A80","udp%3A%2F%2Fopen.demonii.com%3A1337","udp%3A%2F%2Ftracker.coppersurfer.tk%3A6969","udp%3A%2F%2Fexodus.desync.com%3A6969"],"infoHash":"3e7a2dff66355bb6e5c2c874b1d8a3f2b44ab6f7","infoHashBuffer":{"type":"Buffer","data":[62,122,45,255,102,53,91,182,229,194,200,116,177,216,163,242,180,74,182,247]},"announce":[],"urlList":[]}}